<mxfile>
    <diagram id="Ddy7rdJF4RTI_nzPC1QC" name="Page-6">
        <mxGraphModel dx="898" dy="335" grid="1" gridSize="10" guides="1" tooltips="1" connect="1" arrows="1" fold="1" page="1" pageScale="1" pageWidth="1169" pageHeight="827" math="0" shadow="0">
            <root>
                <mxCell id="v2S93DWMGzN4kAM7KS5l-0"/>
                <mxCell id="v2S93DWMGzN4kAM7KS5l-1" parent="v2S93DWMGzN4kAM7KS5l-0"/>
                <mxCell id="v2S93DWMGzN4kAM7KS5l-2" value="" style="rounded=0;whiteSpace=wrap;html=1;fillColor=none;dashed=1;shadow=0;glass=0;sketch=1;" parent="v2S93DWMGzN4kAM7KS5l-1" vertex="1">
                    <mxGeometry x="2050" y="300" width="870" height="500" as="geometry"/>
                </mxCell>
                <mxCell id="v2S93DWMGzN4kAM7KS5l-3" style="edgeStyle=orthogonalEdgeStyle;orthogonalLoop=1;jettySize=auto;html=1;entryX=0.5;entryY=0;entryDx=0;entryDy=0;entryPerimeter=0;exitX=1;exitY=0.25;exitDx=0;exitDy=0;" parent="v2S93DWMGzN4kAM7KS5l-1" source="v2S93DWMGzN4kAM7KS5l-6" target="v2S93DWMGzN4kAM7KS5l-100" edge="1">
                    <mxGeometry relative="1" as="geometry">
                        <Array as="points">
                            <mxPoint x="1940" y="370"/>
                            <mxPoint x="1940" y="776"/>
                        </Array>
                    </mxGeometry>
                </mxCell>
                <mxCell id="v2S93DWMGzN4kAM7KS5l-4" style="orthogonalLoop=1;jettySize=auto;html=1;entryX=0.145;entryY=1;entryDx=0;entryDy=-4.35;entryPerimeter=0;exitX=1;exitY=0.75;exitDx=0;exitDy=0;" parent="v2S93DWMGzN4kAM7KS5l-1" source="v2S93DWMGzN4kAM7KS5l-6" target="v2S93DWMGzN4kAM7KS5l-24" edge="1">
                    <mxGeometry relative="1" as="geometry">
                        <mxPoint x="1450" y="378.75" as="targetPoint"/>
                    </mxGeometry>
                </mxCell>
                <mxCell id="v2S93DWMGzN4kAM7KS5l-5" style="edgeStyle=orthogonalEdgeStyle;orthogonalLoop=1;jettySize=auto;html=1;entryX=0.5;entryY=1;entryDx=0;entryDy=0;entryPerimeter=0;fontColor=#000000;exitX=0.5;exitY=0;exitDx=0;exitDy=0;" parent="v2S93DWMGzN4kAM7KS5l-1" source="v2S93DWMGzN4kAM7KS5l-6" target="v2S93DWMGzN4kAM7KS5l-81" edge="1">
                    <mxGeometry relative="1" as="geometry"/>
                </mxCell>
                <mxCell id="v2S93DWMGzN4kAM7KS5l-6" value="&lt;span id=&quot;docs-internal-guid-a2e5c839-7fff-362a-354d-e41ed75447e3&quot;&gt;&lt;span style=&quot;font-size: 11pt ; font-family: &amp;#34;arial&amp;#34; ; background-color: transparent ; vertical-align: baseline&quot;&gt;ticket&lt;/span&gt;&lt;/span&gt;" style="whiteSpace=wrap;html=1;" parent="v2S93DWMGzN4kAM7KS5l-1" vertex="1">
                    <mxGeometry x="1269" y="352" width="120" height="60" as="geometry"/>
                </mxCell>
                <mxCell id="v2S93DWMGzN4kAM7KS5l-7" style="orthogonalLoop=1;jettySize=auto;html=1;entryX=0.755;entryY=0.023;entryDx=0;entryDy=0;entryPerimeter=0;exitX=1;exitY=0.5;exitDx=0;exitDy=0;edgeStyle=orthogonalEdgeStyle;" parent="v2S93DWMGzN4kAM7KS5l-1" source="v2S93DWMGzN4kAM7KS5l-73" target="v2S93DWMGzN4kAM7KS5l-100" edge="1">
                    <mxGeometry relative="1" as="geometry">
                        <Array as="points">
                            <mxPoint x="1960" y="232"/>
                            <mxPoint x="1960" y="786"/>
                        </Array>
                    </mxGeometry>
                </mxCell>
                <mxCell id="v2S93DWMGzN4kAM7KS5l-8" style="orthogonalLoop=1;jettySize=auto;html=1;entryX=0;entryY=0.5;entryDx=0;entryDy=0;exitX=0.41;exitY=0.009;exitDx=0;exitDy=0;exitPerimeter=0;edgeStyle=orthogonalEdgeStyle;" parent="v2S93DWMGzN4kAM7KS5l-1" source="v2S93DWMGzN4kAM7KS5l-97" target="v2S93DWMGzN4kAM7KS5l-73" edge="1">
                    <mxGeometry relative="1" as="geometry">
                        <Array as="points">
                            <mxPoint x="1040" y="255"/>
                            <mxPoint x="1040" y="220"/>
                        </Array>
                        <mxPoint x="766.25" y="156.25551470588243" as="sourcePoint"/>
                    </mxGeometry>
                </mxCell>
                <mxCell id="v2S93DWMGzN4kAM7KS5l-9" style="orthogonalLoop=1;jettySize=auto;html=1;entryX=0;entryY=0.5;entryDx=0;entryDy=0;edgeStyle=orthogonalEdgeStyle;" parent="v2S93DWMGzN4kAM7KS5l-1" source="v2S93DWMGzN4kAM7KS5l-10" target="v2S93DWMGzN4kAM7KS5l-77" edge="1">
                    <mxGeometry relative="1" as="geometry"/>
                </mxCell>
                <mxCell id="v2S93DWMGzN4kAM7KS5l-10" value="" style="verticalLabelPosition=bottom;verticalAlign=top;html=1;shadow=0;dashed=0;strokeWidth=1;shape=mxgraph.android.phone2;strokeColor=#c0c0c0;" parent="v2S93DWMGzN4kAM7KS5l-1" vertex="1">
                    <mxGeometry x="205" y="190" width="55" height="90" as="geometry"/>
                </mxCell>
                <mxCell id="v2S93DWMGzN4kAM7KS5l-11" style="edgeStyle=orthogonalEdgeStyle;orthogonalLoop=1;jettySize=auto;html=1;entryX=0.5;entryY=1;entryDx=0;entryDy=0;entryPerimeter=0;fontColor=#FFFFFF;exitX=0.5;exitY=0;exitDx=0;exitDy=0;" parent="v2S93DWMGzN4kAM7KS5l-1" source="v2S93DWMGzN4kAM7KS5l-77" target="v2S93DWMGzN4kAM7KS5l-98" edge="1">
                    <mxGeometry relative="1" as="geometry"/>
                </mxCell>
                <mxCell id="v2S93DWMGzN4kAM7KS5l-12" style="edgeStyle=orthogonalEdgeStyle;orthogonalLoop=1;jettySize=auto;html=1;entryX=0.425;entryY=1.012;entryDx=0;entryDy=0;entryPerimeter=0;" parent="v2S93DWMGzN4kAM7KS5l-1" source="v2S93DWMGzN4kAM7KS5l-100" target="v2S93DWMGzN4kAM7KS5l-76" edge="1">
                    <mxGeometry relative="1" as="geometry">
                        <mxPoint x="478" y="430" as="targetPoint"/>
                    </mxGeometry>
                </mxCell>
                <mxCell id="v2S93DWMGzN4kAM7KS5l-13" style="orthogonalLoop=1;jettySize=auto;html=1;entryX=0;entryY=0.5;entryDx=0;entryDy=0;edgeStyle=orthogonalEdgeStyle;exitX=0;exitY=0.5;exitDx=0;exitDy=0;exitPerimeter=0;" parent="v2S93DWMGzN4kAM7KS5l-1" source="v2S93DWMGzN4kAM7KS5l-100" target="v2S93DWMGzN4kAM7KS5l-22" edge="1">
                    <mxGeometry relative="1" as="geometry"/>
                </mxCell>
                <mxCell id="v2S93DWMGzN4kAM7KS5l-14" value="&lt;font color=&quot;#000000&quot;&gt;ticket closed&lt;/font&gt;" style="edgeLabel;html=1;align=center;verticalAlign=middle;resizable=0;points=[];fontColor=#FFFFFF;" parent="v2S93DWMGzN4kAM7KS5l-13" vertex="1" connectable="0">
                    <mxGeometry x="-0.3077" y="1" relative="1" as="geometry">
                        <mxPoint x="1" y="-15" as="offset"/>
                    </mxGeometry>
                </mxCell>
                <mxCell id="v2S93DWMGzN4kAM7KS5l-15" style="edgeStyle=orthogonalEdgeStyle;orthogonalLoop=1;jettySize=auto;html=1;entryX=0;entryY=0.5;entryDx=0;entryDy=0;entryPerimeter=0;fontColor=#000000;" parent="v2S93DWMGzN4kAM7KS5l-1" source="v2S93DWMGzN4kAM7KS5l-16" target="v2S93DWMGzN4kAM7KS5l-79" edge="1">
                    <mxGeometry relative="1" as="geometry"/>
                </mxCell>
                <mxCell id="v2S93DWMGzN4kAM7KS5l-16" value="notification" style="whiteSpace=wrap;html=1;align=center;" parent="v2S93DWMGzN4kAM7KS5l-1" vertex="1">
                    <mxGeometry x="1160" y="680" width="120" height="60" as="geometry"/>
                </mxCell>
                <mxCell id="v2S93DWMGzN4kAM7KS5l-17" style="orthogonalLoop=1;jettySize=auto;html=1;exitX=1;exitY=0.5;exitDx=0;exitDy=0;exitPerimeter=0;" parent="v2S93DWMGzN4kAM7KS5l-1" source="v2S93DWMGzN4kAM7KS5l-18" target="v2S93DWMGzN4kAM7KS5l-16" edge="1">
                    <mxGeometry relative="1" as="geometry">
                        <mxPoint x="1010" y="630" as="sourcePoint"/>
                    </mxGeometry>
                </mxCell>
                <mxCell id="v2S93DWMGzN4kAM7KS5l-18" value="&lt;div style=&quot;&quot;&gt;&lt;span style=&quot;font-size: 11px&quot;&gt;notify&lt;/span&gt;&lt;/div&gt;" style="shape=cylinder3;whiteSpace=wrap;html=1;boundedLbl=1;backgroundOutline=1;size=15;align=center;rotation=90;horizontal=0;" parent="v2S93DWMGzN4kAM7KS5l-1" vertex="1">
                    <mxGeometry x="1200" y="543.75" width="40" height="112.5" as="geometry"/>
                </mxCell>
                <mxCell id="v2S93DWMGzN4kAM7KS5l-19" style="edgeStyle=orthogonalEdgeStyle;orthogonalLoop=1;jettySize=auto;html=1;entryX=0.5;entryY=1;entryDx=0;entryDy=0;entryPerimeter=0;" parent="v2S93DWMGzN4kAM7KS5l-1" source="v2S93DWMGzN4kAM7KS5l-22" target="v2S93DWMGzN4kAM7KS5l-18" edge="1">
                    <mxGeometry relative="1" as="geometry"/>
                </mxCell>
                <mxCell id="v2S93DWMGzN4kAM7KS5l-20" value="send survey to customer" style="edgeLabel;html=1;align=center;verticalAlign=middle;resizable=0;points=[];fontColor=#000000;" parent="v2S93DWMGzN4kAM7KS5l-19" vertex="1" connectable="0">
                    <mxGeometry x="-0.1504" y="-3" relative="1" as="geometry">
                        <mxPoint x="4" y="-13" as="offset"/>
                    </mxGeometry>
                </mxCell>
                <mxCell id="v2S93DWMGzN4kAM7KS5l-21" style="edgeStyle=orthogonalEdgeStyle;orthogonalLoop=1;jettySize=auto;html=1;fontColor=#000000;" parent="v2S93DWMGzN4kAM7KS5l-1" source="v2S93DWMGzN4kAM7KS5l-22" target="v2S93DWMGzN4kAM7KS5l-83" edge="1">
                    <mxGeometry relative="1" as="geometry"/>
                </mxCell>
                <mxCell id="v2S93DWMGzN4kAM7KS5l-22" value="survey" style="whiteSpace=wrap;html=1;align=center;" parent="v2S93DWMGzN4kAM7KS5l-1" vertex="1">
                    <mxGeometry x="820" y="570" width="120" height="60" as="geometry"/>
                </mxCell>
                <mxCell id="v2S93DWMGzN4kAM7KS5l-23" value="assign an expert" style="orthogonalLoop=1;jettySize=auto;html=1;entryX=0;entryY=0.25;entryDx=0;entryDy=0;exitX=0.5;exitY=0;exitDx=0;exitDy=0;exitPerimeter=0;" parent="v2S93DWMGzN4kAM7KS5l-1" source="v2S93DWMGzN4kAM7KS5l-24" target="v2S93DWMGzN4kAM7KS5l-29" edge="1">
                    <mxGeometry x="-0.0536" y="11" relative="1" as="geometry">
                        <mxPoint as="offset"/>
                    </mxGeometry>
                </mxCell>
                <mxCell id="v2S93DWMGzN4kAM7KS5l-24" value="&lt;div&gt;&lt;span style=&quot;font-size: 11px&quot;&gt;ticket created&lt;/span&gt;&lt;/div&gt;" style="shape=cylinder3;whiteSpace=wrap;html=1;boundedLbl=1;backgroundOutline=1;size=15;align=center;rotation=90;horizontal=0;" parent="v2S93DWMGzN4kAM7KS5l-1" vertex="1">
                    <mxGeometry x="1499" y="355" width="40" height="112.5" as="geometry"/>
                </mxCell>
                <mxCell id="v2S93DWMGzN4kAM7KS5l-25" style="edgeStyle=orthogonalEdgeStyle;orthogonalLoop=1;jettySize=auto;html=1;entryX=0.5;entryY=0;entryDx=0;entryDy=0;entryPerimeter=0;exitX=0.25;exitY=1;exitDx=0;exitDy=0;" parent="v2S93DWMGzN4kAM7KS5l-1" source="v2S93DWMGzN4kAM7KS5l-29" target="v2S93DWMGzN4kAM7KS5l-34" edge="1">
                    <mxGeometry relative="1" as="geometry">
                        <Array as="points">
                            <mxPoint x="1720" y="534"/>
                        </Array>
                    </mxGeometry>
                </mxCell>
                <mxCell id="v2S93DWMGzN4kAM7KS5l-26" style="edgeStyle=orthogonalEdgeStyle;orthogonalLoop=1;jettySize=auto;html=1;entryX=0;entryY=0.5;entryDx=0;entryDy=0;entryPerimeter=0;exitX=1;exitY=0.75;exitDx=0;exitDy=0;" parent="v2S93DWMGzN4kAM7KS5l-1" source="v2S93DWMGzN4kAM7KS5l-29" target="v2S93DWMGzN4kAM7KS5l-39" edge="1">
                    <mxGeometry relative="1" as="geometry"/>
                </mxCell>
                <mxCell id="v2S93DWMGzN4kAM7KS5l-27" style="edgeStyle=orthogonalEdgeStyle;orthogonalLoop=1;jettySize=auto;html=1;exitX=1;exitY=0.25;exitDx=0;exitDy=0;entryX=0.145;entryY=0;entryDx=0;entryDy=4.35;entryPerimeter=0;" parent="v2S93DWMGzN4kAM7KS5l-1" source="v2S93DWMGzN4kAM7KS5l-29" target="v2S93DWMGzN4kAM7KS5l-100" edge="1">
                    <mxGeometry relative="1" as="geometry">
                        <mxPoint x="737" y="730" as="targetPoint"/>
                        <Array as="points">
                            <mxPoint x="1920" y="419"/>
                            <mxPoint x="1920" y="762"/>
                        </Array>
                    </mxGeometry>
                </mxCell>
                <mxCell id="v2S93DWMGzN4kAM7KS5l-28" style="edgeStyle=orthogonalEdgeStyle;orthogonalLoop=1;jettySize=auto;html=1;entryX=0.5;entryY=1;entryDx=0;entryDy=0;entryPerimeter=0;fontColor=#000000;" parent="v2S93DWMGzN4kAM7KS5l-1" source="v2S93DWMGzN4kAM7KS5l-29" target="v2S93DWMGzN4kAM7KS5l-82" edge="1">
                    <mxGeometry relative="1" as="geometry"/>
                </mxCell>
                <mxCell id="v2S93DWMGzN4kAM7KS5l-29" value="expert profile" style="whiteSpace=wrap;html=1;align=center;" parent="v2S93DWMGzN4kAM7KS5l-1" vertex="1">
                    <mxGeometry x="1691" y="396" width="120" height="60" as="geometry"/>
                </mxCell>
                <mxCell id="v2S93DWMGzN4kAM7KS5l-30" style="edgeStyle=orthogonalEdgeStyle;orthogonalLoop=1;jettySize=auto;html=1;entryX=0.5;entryY=0;entryDx=0;entryDy=0;entryPerimeter=0;" parent="v2S93DWMGzN4kAM7KS5l-1" source="v2S93DWMGzN4kAM7KS5l-34" target="v2S93DWMGzN4kAM7KS5l-18" edge="1">
                    <mxGeometry relative="1" as="geometry">
                        <Array as="points">
                            <mxPoint x="1510" y="600"/>
                        </Array>
                    </mxGeometry>
                </mxCell>
                <mxCell id="v2S93DWMGzN4kAM7KS5l-31" value="notify expert" style="edgeLabel;html=1;align=center;verticalAlign=middle;resizable=0;points=[];fontColor=#000000;" parent="v2S93DWMGzN4kAM7KS5l-30" vertex="1" connectable="0">
                    <mxGeometry x="0.1895" y="-3" relative="1" as="geometry">
                        <mxPoint x="11" y="-7" as="offset"/>
                    </mxGeometry>
                </mxCell>
                <mxCell id="v2S93DWMGzN4kAM7KS5l-32" style="edgeStyle=orthogonalEdgeStyle;orthogonalLoop=1;jettySize=auto;html=1;entryX=0.5;entryY=1;entryDx=0;entryDy=0;" parent="v2S93DWMGzN4kAM7KS5l-1" source="v2S93DWMGzN4kAM7KS5l-34" target="v2S93DWMGzN4kAM7KS5l-6" edge="1">
                    <mxGeometry relative="1" as="geometry"/>
                </mxCell>
                <mxCell id="v2S93DWMGzN4kAM7KS5l-33" value="update status" style="edgeLabel;html=1;align=center;verticalAlign=middle;resizable=0;points=[];fontColor=#000000;" parent="v2S93DWMGzN4kAM7KS5l-32" vertex="1" connectable="0">
                    <mxGeometry x="0.4807" y="1" relative="1" as="geometry">
                        <mxPoint x="41" y="38" as="offset"/>
                    </mxGeometry>
                </mxCell>
                <mxCell id="v2S93DWMGzN4kAM7KS5l-34" value="&lt;div&gt;&lt;span style=&quot;font-size: 11px&quot;&gt;ticket assigned&lt;/span&gt;&lt;/div&gt;" style="shape=cylinder3;whiteSpace=wrap;html=1;boundedLbl=1;backgroundOutline=1;size=15;align=center;rotation=90;horizontal=0;" parent="v2S93DWMGzN4kAM7KS5l-1" vertex="1">
                    <mxGeometry x="1490" y="477.5" width="40" height="112.5" as="geometry"/>
                </mxCell>
                <mxCell id="v2S93DWMGzN4kAM7KS5l-35" style="orthogonalLoop=1;jettySize=auto;html=1;entryX=0;entryY=0.5;entryDx=0;entryDy=0;exitX=1;exitY=0.5;exitDx=0;exitDy=0;edgeStyle=orthogonalEdgeStyle;" parent="v2S93DWMGzN4kAM7KS5l-1" source="v2S93DWMGzN4kAM7KS5l-36" target="v2S93DWMGzN4kAM7KS5l-77" edge="1">
                    <mxGeometry relative="1" as="geometry"/>
                </mxCell>
                <mxCell id="v2S93DWMGzN4kAM7KS5l-36" value="Customer UI" style="whiteSpace=wrap;html=1;align=center;" parent="v2S93DWMGzN4kAM7KS5l-1" vertex="1">
                    <mxGeometry x="172.5" y="320" width="120" height="60" as="geometry"/>
                </mxCell>
                <mxCell id="v2S93DWMGzN4kAM7KS5l-37" style="edgeStyle=orthogonalEdgeStyle;orthogonalLoop=1;jettySize=auto;html=1;entryX=0.855;entryY=0;entryDx=0;entryDy=4.35;entryPerimeter=0;" parent="v2S93DWMGzN4kAM7KS5l-1" source="v2S93DWMGzN4kAM7KS5l-39" target="v2S93DWMGzN4kAM7KS5l-18" edge="1">
                    <mxGeometry relative="1" as="geometry">
                        <Array as="points">
                            <mxPoint x="1840" y="614"/>
                        </Array>
                    </mxGeometry>
                </mxCell>
                <mxCell id="v2S93DWMGzN4kAM7KS5l-38" value="notify customer" style="edgeLabel;html=1;align=center;verticalAlign=middle;resizable=0;points=[];fontColor=#000000;" parent="v2S93DWMGzN4kAM7KS5l-37" vertex="1" connectable="0">
                    <mxGeometry x="0.1253" y="3" relative="1" as="geometry">
                        <mxPoint x="200" y="-13" as="offset"/>
                    </mxGeometry>
                </mxCell>
                <mxCell id="v2S93DWMGzN4kAM7KS5l-39" value="&lt;span style=&quot;font-size: 11px&quot;&gt;Date Confirmed&lt;/span&gt;" style="shape=cylinder3;whiteSpace=wrap;html=1;boundedLbl=1;backgroundOutline=1;size=15;align=center;rotation=90;horizontal=0;" parent="v2S93DWMGzN4kAM7KS5l-1" vertex="1">
                    <mxGeometry x="1820" y="467.5" width="40" height="112.5" as="geometry"/>
                </mxCell>
                <mxCell id="v2S93DWMGzN4kAM7KS5l-40" style="orthogonalLoop=1;jettySize=auto;html=1;entryX=0;entryY=0.5;entryDx=0;entryDy=0;exitX=1;exitY=0.5;exitDx=0;exitDy=0;edgeStyle=orthogonalEdgeStyle;" parent="v2S93DWMGzN4kAM7KS5l-1" source="v2S93DWMGzN4kAM7KS5l-41" target="v2S93DWMGzN4kAM7KS5l-77" edge="1">
                    <mxGeometry relative="1" as="geometry"/>
                </mxCell>
                <mxCell id="v2S93DWMGzN4kAM7KS5l-41" value="Admin UI" style="whiteSpace=wrap;html=1;align=center;" parent="v2S93DWMGzN4kAM7KS5l-1" vertex="1">
                    <mxGeometry x="172.5" y="417.5" width="120" height="60" as="geometry"/>
                </mxCell>
                <mxCell id="v2S93DWMGzN4kAM7KS5l-42" style="edgeStyle=orthogonalEdgeStyle;orthogonalLoop=1;jettySize=auto;html=1;entryX=1;entryY=0;entryDx=0;entryDy=15;entryPerimeter=0;exitX=0.25;exitY=1;exitDx=0;exitDy=0;" parent="v2S93DWMGzN4kAM7KS5l-1" source="v2S93DWMGzN4kAM7KS5l-45" target="v2S93DWMGzN4kAM7KS5l-100" edge="1">
                    <mxGeometry relative="1" as="geometry">
                        <Array as="points">
                            <mxPoint x="1980" y="796"/>
                        </Array>
                    </mxGeometry>
                </mxCell>
                <mxCell id="v2S93DWMGzN4kAM7KS5l-43" value="" style="edgeStyle=orthogonalEdgeStyle;orthogonalLoop=1;jettySize=auto;html=1;" parent="v2S93DWMGzN4kAM7KS5l-1" source="v2S93DWMGzN4kAM7KS5l-45" target="v2S93DWMGzN4kAM7KS5l-47" edge="1">
                    <mxGeometry relative="1" as="geometry"/>
                </mxCell>
                <mxCell id="v2S93DWMGzN4kAM7KS5l-44" style="orthogonalLoop=1;jettySize=auto;html=1;entryX=1;entryY=0.5;entryDx=0;entryDy=0;entryPerimeter=0;fontColor=#000000;" parent="v2S93DWMGzN4kAM7KS5l-1" source="v2S93DWMGzN4kAM7KS5l-45" target="v2S93DWMGzN4kAM7KS5l-84" edge="1">
                    <mxGeometry relative="1" as="geometry"/>
                </mxCell>
                <mxCell id="v2S93DWMGzN4kAM7KS5l-45" value="Support Plans and subscriptions" style="whiteSpace=wrap;html=1;" parent="v2S93DWMGzN4kAM7KS5l-1" vertex="1">
                    <mxGeometry x="1950" y="151.25" width="120" height="60" as="geometry"/>
                </mxCell>
                <mxCell id="v2S93DWMGzN4kAM7KS5l-46" value="" style="edgeStyle=orthogonalEdgeStyle;orthogonalLoop=1;jettySize=auto;html=1;entryX=0;entryY=0.75;entryDx=0;entryDy=0;" parent="v2S93DWMGzN4kAM7KS5l-1" source="v2S93DWMGzN4kAM7KS5l-47" target="v2S93DWMGzN4kAM7KS5l-54" edge="1">
                    <mxGeometry relative="1" as="geometry"/>
                </mxCell>
                <mxCell id="v2S93DWMGzN4kAM7KS5l-47" value="&lt;span style=&quot;text-align: center&quot;&gt;&lt;span style=&quot;font-size: 11px&quot;&gt;Subscription Created/renewed&lt;/span&gt;&lt;/span&gt;" style="shape=cylinder3;whiteSpace=wrap;html=1;boundedLbl=1;backgroundOutline=1;size=15;align=left;rotation=90;horizontal=0;" parent="v2S93DWMGzN4kAM7KS5l-1" vertex="1">
                    <mxGeometry x="2170" y="110" width="60" height="142.5" as="geometry"/>
                </mxCell>
                <mxCell id="v2S93DWMGzN4kAM7KS5l-48" style="edgeStyle=orthogonalEdgeStyle;orthogonalLoop=1;jettySize=auto;html=1;entryX=0.5;entryY=0;entryDx=0;entryDy=0;entryPerimeter=0;" parent="v2S93DWMGzN4kAM7KS5l-1" source="v2S93DWMGzN4kAM7KS5l-51" target="v2S93DWMGzN4kAM7KS5l-58" edge="1">
                    <mxGeometry relative="1" as="geometry">
                        <Array as="points">
                            <mxPoint x="2820" y="249"/>
                        </Array>
                    </mxGeometry>
                </mxCell>
                <mxCell id="v2S93DWMGzN4kAM7KS5l-49" value="" style="edgeStyle=orthogonalEdgeStyle;orthogonalLoop=1;jettySize=auto;html=1;" parent="v2S93DWMGzN4kAM7KS5l-1" source="v2S93DWMGzN4kAM7KS5l-51" target="v2S93DWMGzN4kAM7KS5l-60" edge="1">
                    <mxGeometry relative="1" as="geometry"/>
                </mxCell>
                <mxCell id="v2S93DWMGzN4kAM7KS5l-51" value="Payments" style="whiteSpace=wrap;html=1;align=center;imageAlign=center;" parent="v2S93DWMGzN4kAM7KS5l-1" vertex="1">
                    <mxGeometry x="2760" y="151.25" width="120" height="60" as="geometry"/>
                </mxCell>
                <mxCell id="v2S93DWMGzN4kAM7KS5l-52" style="edgeStyle=orthogonalEdgeStyle;orthogonalLoop=1;jettySize=auto;html=1;entryX=0.5;entryY=1;entryDx=0;entryDy=0;entryPerimeter=0;exitX=1;exitY=0.75;exitDx=0;exitDy=0;" parent="v2S93DWMGzN4kAM7KS5l-1" source="v2S93DWMGzN4kAM7KS5l-54" target="v2S93DWMGzN4kAM7KS5l-56" edge="1">
                    <mxGeometry relative="1" as="geometry">
                        <mxPoint x="2740" y="181" as="targetPoint"/>
                    </mxGeometry>
                </mxCell>
                <mxCell id="v2S93DWMGzN4kAM7KS5l-53" style="edgeStyle=none;orthogonalLoop=1;jettySize=auto;html=1;fontColor=#000000;entryX=0.5;entryY=0;entryDx=0;entryDy=0;entryPerimeter=0;" parent="v2S93DWMGzN4kAM7KS5l-1" source="v2S93DWMGzN4kAM7KS5l-54" target="v2S93DWMGzN4kAM7KS5l-85" edge="1">
                    <mxGeometry relative="1" as="geometry">
                        <mxPoint x="2410" y="135" as="targetPoint"/>
                    </mxGeometry>
                </mxCell>
                <mxCell id="v2S93DWMGzN4kAM7KS5l-54" value="Payment informations" style="whiteSpace=wrap;html=1;align=left;" parent="v2S93DWMGzN4kAM7KS5l-1" vertex="1">
                    <mxGeometry x="2350" y="10" width="120" height="56.25" as="geometry"/>
                </mxCell>
                <mxCell id="v2S93DWMGzN4kAM7KS5l-55" style="edgeStyle=orthogonalEdgeStyle;orthogonalLoop=1;jettySize=auto;html=1;entryX=0;entryY=0.5;entryDx=0;entryDy=0;" parent="v2S93DWMGzN4kAM7KS5l-1" source="v2S93DWMGzN4kAM7KS5l-56" target="v2S93DWMGzN4kAM7KS5l-51" edge="1">
                    <mxGeometry relative="1" as="geometry"/>
                </mxCell>
                <mxCell id="v2S93DWMGzN4kAM7KS5l-56" value="&lt;span style=&quot;text-align: center&quot;&gt;&lt;span style=&quot;font-size: 11px&quot;&gt;Payment&amp;nbsp;Request&amp;nbsp;&lt;/span&gt;&lt;/span&gt;" style="shape=cylinder3;whiteSpace=wrap;html=1;boundedLbl=1;backgroundOutline=1;size=15;align=left;rotation=90;horizontal=0;" parent="v2S93DWMGzN4kAM7KS5l-1" vertex="1">
                    <mxGeometry x="2600" y="110" width="60" height="142.5" as="geometry"/>
                </mxCell>
                <mxCell id="v2S93DWMGzN4kAM7KS5l-57" style="edgeStyle=orthogonalEdgeStyle;orthogonalLoop=1;jettySize=auto;html=1;entryX=0.75;entryY=1;entryDx=0;entryDy=0;" parent="v2S93DWMGzN4kAM7KS5l-1" source="v2S93DWMGzN4kAM7KS5l-58" target="v2S93DWMGzN4kAM7KS5l-45" edge="1">
                    <mxGeometry relative="1" as="geometry"/>
                </mxCell>
                <mxCell id="v2S93DWMGzN4kAM7KS5l-58" value="&lt;span style=&quot;text-align: center&quot;&gt;&lt;span style=&quot;font-size: 11px&quot;&gt;Payment&amp;nbsp;results&lt;/span&gt;&lt;/span&gt;" style="shape=cylinder3;whiteSpace=wrap;html=1;boundedLbl=1;backgroundOutline=1;size=15;align=left;rotation=90;horizontal=0;" parent="v2S93DWMGzN4kAM7KS5l-1" vertex="1">
                    <mxGeometry x="2400" y="177.5" width="60" height="142.5" as="geometry"/>
                </mxCell>
                <mxCell id="v2S93DWMGzN4kAM7KS5l-59" style="edgeStyle=orthogonalEdgeStyle;orthogonalLoop=1;jettySize=auto;html=1;entryX=1;entryY=0.5;entryDx=0;entryDy=0;" parent="v2S93DWMGzN4kAM7KS5l-1" source="v2S93DWMGzN4kAM7KS5l-60" target="v2S93DWMGzN4kAM7KS5l-51" edge="1">
                    <mxGeometry relative="1" as="geometry"/>
                </mxCell>
                <mxCell id="v2S93DWMGzN4kAM7KS5l-60" value="third party payment gateway" style="whiteSpace=wrap;html=1;align=center;fillColor=#f8cecc;strokeColor=#b85450;" parent="v2S93DWMGzN4kAM7KS5l-1" vertex="1">
                    <mxGeometry x="2970" y="151.25" width="120" height="60" as="geometry"/>
                </mxCell>
                <mxCell id="v2S93DWMGzN4kAM7KS5l-61" style="orthogonalLoop=1;jettySize=auto;html=1;exitX=0.145;exitY=0;exitDx=0;exitDy=4.35;exitPerimeter=0;edgeStyle=orthogonalEdgeStyle;entryX=0;entryY=0.25;entryDx=0;entryDy=0;" parent="v2S93DWMGzN4kAM7KS5l-1" source="v2S93DWMGzN4kAM7KS5l-97" target="v2S93DWMGzN4kAM7KS5l-54" edge="1">
                    <mxGeometry relative="1" as="geometry">
                        <mxPoint x="791.25" y="-326.24559248554897" as="sourcePoint"/>
                        <mxPoint x="2290" y="-192" as="targetPoint"/>
                        <Array as="points">
                            <mxPoint x="770" y="245"/>
                            <mxPoint x="770" y="24"/>
                        </Array>
                    </mxGeometry>
                </mxCell>
                <mxCell id="v2S93DWMGzN4kAM7KS5l-62" style="orthogonalLoop=1;jettySize=auto;html=1;exitX=0.753;exitY=0.024;exitDx=0;exitDy=0;exitPerimeter=0;edgeStyle=orthogonalEdgeStyle;entryX=0;entryY=0.75;entryDx=0;entryDy=0;" parent="v2S93DWMGzN4kAM7KS5l-1" source="v2S93DWMGzN4kAM7KS5l-97" target="v2S93DWMGzN4kAM7KS5l-29" edge="1">
                    <mxGeometry relative="1" as="geometry">
                        <mxPoint x="810" y="350" as="sourcePoint"/>
                        <mxPoint x="1640" y="430" as="targetPoint"/>
                        <Array as="points">
                            <mxPoint x="739" y="270"/>
                            <mxPoint x="930" y="270"/>
                            <mxPoint x="930" y="441"/>
                        </Array>
                    </mxGeometry>
                </mxCell>
                <mxCell id="v2S93DWMGzN4kAM7KS5l-63" style="edgeStyle=orthogonalEdgeStyle;orthogonalLoop=1;jettySize=auto;html=1;entryX=0;entryY=0.25;entryDx=0;entryDy=0;exitX=0.61;exitY=0.014;exitDx=0;exitDy=0;exitPerimeter=0;" parent="v2S93DWMGzN4kAM7KS5l-1" source="v2S93DWMGzN4kAM7KS5l-97" target="v2S93DWMGzN4kAM7KS5l-6" edge="1">
                    <mxGeometry relative="1" as="geometry">
                        <mxPoint x="763.75" y="206.25901731324166" as="sourcePoint"/>
                        <Array as="points">
                            <mxPoint x="990" y="263"/>
                            <mxPoint x="990" y="367"/>
                        </Array>
                    </mxGeometry>
                </mxCell>
                <mxCell id="v2S93DWMGzN4kAM7KS5l-64" style="edgeStyle=orthogonalEdgeStyle;orthogonalLoop=1;jettySize=auto;html=1;entryX=0.055;entryY=0.478;entryDx=0;entryDy=0;entryPerimeter=0;" parent="v2S93DWMGzN4kAM7KS5l-1" source="v2S93DWMGzN4kAM7KS5l-65" target="v2S93DWMGzN4kAM7KS5l-10" edge="1">
                    <mxGeometry relative="1" as="geometry"/>
                </mxCell>
                <mxCell id="v2S93DWMGzN4kAM7KS5l-65" value="expert" style="shape=umlActor;verticalLabelPosition=bottom;verticalAlign=top;html=1;align=center;" parent="v2S93DWMGzN4kAM7KS5l-1" vertex="1">
                    <mxGeometry x="20" y="202.5" width="30" height="60" as="geometry"/>
                </mxCell>
                <mxCell id="v2S93DWMGzN4kAM7KS5l-66" style="edgeStyle=orthogonalEdgeStyle;orthogonalLoop=1;jettySize=auto;html=1;" parent="v2S93DWMGzN4kAM7KS5l-1" source="v2S93DWMGzN4kAM7KS5l-67" target="v2S93DWMGzN4kAM7KS5l-36" edge="1">
                    <mxGeometry relative="1" as="geometry"/>
                </mxCell>
                <mxCell id="v2S93DWMGzN4kAM7KS5l-67" value="customer" style="shape=umlActor;verticalLabelPosition=bottom;verticalAlign=top;html=1;align=center;" parent="v2S93DWMGzN4kAM7KS5l-1" vertex="1">
                    <mxGeometry x="20" y="320" width="30" height="60" as="geometry"/>
                </mxCell>
                <mxCell id="v2S93DWMGzN4kAM7KS5l-68" style="edgeStyle=orthogonalEdgeStyle;orthogonalLoop=1;jettySize=auto;html=1;" parent="v2S93DWMGzN4kAM7KS5l-1" source="v2S93DWMGzN4kAM7KS5l-69" target="v2S93DWMGzN4kAM7KS5l-41" edge="1">
                    <mxGeometry relative="1" as="geometry"/>
                </mxCell>
                <mxCell id="v2S93DWMGzN4kAM7KS5l-69" value="admin" style="shape=umlActor;verticalLabelPosition=bottom;verticalAlign=top;html=1;align=center;" parent="v2S93DWMGzN4kAM7KS5l-1" vertex="1">
                    <mxGeometry x="20" y="417.5" width="30" height="60" as="geometry"/>
                </mxCell>
                <mxCell id="v2S93DWMGzN4kAM7KS5l-70" style="edgeStyle=orthogonalEdgeStyle;orthogonalLoop=1;jettySize=auto;html=1;entryX=0.5;entryY=0;entryDx=0;entryDy=0;exitX=0.281;exitY=0.014;exitDx=0;exitDy=0;exitPerimeter=0;" parent="v2S93DWMGzN4kAM7KS5l-1" source="v2S93DWMGzN4kAM7KS5l-97" target="v2S93DWMGzN4kAM7KS5l-45" edge="1">
                    <mxGeometry relative="1" as="geometry">
                        <mxPoint x="740" y="250" as="sourcePoint"/>
                        <mxPoint x="1890" y="-30" as="targetPoint"/>
                        <Array as="points">
                            <mxPoint x="840" y="249"/>
                            <mxPoint x="840" y="60"/>
                            <mxPoint x="2010" y="60"/>
                        </Array>
                    </mxGeometry>
                </mxCell>
                <mxCell id="v2S93DWMGzN4kAM7KS5l-71" style="edgeStyle=orthogonalEdgeStyle;orthogonalLoop=1;jettySize=auto;html=1;exitX=0.938;exitY=0.075;exitDx=0;exitDy=0;exitPerimeter=0;" parent="v2S93DWMGzN4kAM7KS5l-1" source="v2S93DWMGzN4kAM7KS5l-97" target="v2S93DWMGzN4kAM7KS5l-22" edge="1">
                    <mxGeometry relative="1" as="geometry"/>
                </mxCell>
                <mxCell id="v2S93DWMGzN4kAM7KS5l-72" style="edgeStyle=orthogonalEdgeStyle;orthogonalLoop=1;jettySize=auto;html=1;entryX=0.5;entryY=1;entryDx=0;entryDy=0;entryPerimeter=0;fontColor=#000000;exitX=0.5;exitY=0;exitDx=0;exitDy=0;" parent="v2S93DWMGzN4kAM7KS5l-1" source="v2S93DWMGzN4kAM7KS5l-73" target="v2S93DWMGzN4kAM7KS5l-80" edge="1">
                    <mxGeometry relative="1" as="geometry"/>
                </mxCell>
                <mxCell id="v2S93DWMGzN4kAM7KS5l-73" value="knowledge base" style="whiteSpace=wrap;html=1;" parent="v2S93DWMGzN4kAM7KS5l-1" vertex="1">
                    <mxGeometry x="1140" y="190" width="120" height="60" as="geometry"/>
                </mxCell>
                <mxCell id="v2S93DWMGzN4kAM7KS5l-74" value="users and sessions" style="shape=cylinder3;whiteSpace=wrap;html=1;boundedLbl=1;backgroundOutline=1;size=15;align=center;" parent="v2S93DWMGzN4kAM7KS5l-1" vertex="1">
                    <mxGeometry x="590" y="319.25" width="60" height="80" as="geometry"/>
                </mxCell>
                <mxCell id="v2S93DWMGzN4kAM7KS5l-75" value="" style="group" parent="v2S93DWMGzN4kAM7KS5l-1" vertex="1" connectable="0">
                    <mxGeometry x="417.5" y="320" width="129.5" height="69.25" as="geometry"/>
                </mxCell>
                <mxCell id="v2S93DWMGzN4kAM7KS5l-76" value="" style="whiteSpace=wrap;html=1;align=center;" parent="v2S93DWMGzN4kAM7KS5l-75" vertex="1">
                    <mxGeometry x="9.5" y="9.25" width="120" height="60" as="geometry"/>
                </mxCell>
                <mxCell id="v2S93DWMGzN4kAM7KS5l-77" value="Users/sessions" style="whiteSpace=wrap;html=1;" parent="v2S93DWMGzN4kAM7KS5l-75" vertex="1">
                    <mxGeometry width="120" height="60" as="geometry"/>
                </mxCell>
                <mxCell id="v2S93DWMGzN4kAM7KS5l-78" style="edgeStyle=orthogonalEdgeStyle;orthogonalLoop=1;jettySize=auto;html=1;entryX=0;entryY=0.5;entryDx=0;entryDy=0;entryPerimeter=0;fontColor=#000000;" parent="v2S93DWMGzN4kAM7KS5l-1" source="v2S93DWMGzN4kAM7KS5l-76" target="v2S93DWMGzN4kAM7KS5l-74" edge="1">
                    <mxGeometry relative="1" as="geometry"/>
                </mxCell>
                <mxCell id="v2S93DWMGzN4kAM7KS5l-79" value="notification preferences" style="shape=cylinder3;whiteSpace=wrap;html=1;boundedLbl=1;backgroundOutline=1;size=15;align=center;" parent="v2S93DWMGzN4kAM7KS5l-1" vertex="1">
                    <mxGeometry x="1340" y="670" width="70" height="80" as="geometry"/>
                </mxCell>
                <mxCell id="v2S93DWMGzN4kAM7KS5l-80" value="search index" style="shape=cylinder3;whiteSpace=wrap;html=1;boundedLbl=1;backgroundOutline=1;size=15;align=center;" parent="v2S93DWMGzN4kAM7KS5l-1" vertex="1">
                    <mxGeometry x="1170" y="80" width="60" height="80" as="geometry"/>
                </mxCell>
                <mxCell id="v2S93DWMGzN4kAM7KS5l-81" value="tickets" style="shape=cylinder3;whiteSpace=wrap;html=1;boundedLbl=1;backgroundOutline=1;size=15;align=center;" parent="v2S93DWMGzN4kAM7KS5l-1" vertex="1">
                    <mxGeometry x="1300" y="252.5" width="60" height="80" as="geometry"/>
                </mxCell>
                <mxCell id="v2S93DWMGzN4kAM7KS5l-82" value="experts" style="shape=cylinder3;whiteSpace=wrap;html=1;boundedLbl=1;backgroundOutline=1;size=15;align=center;" parent="v2S93DWMGzN4kAM7KS5l-1" vertex="1">
                    <mxGeometry x="1720" y="262.5" width="60" height="80" as="geometry"/>
                </mxCell>
                <mxCell id="v2S93DWMGzN4kAM7KS5l-83" value="surveys" style="shape=cylinder3;whiteSpace=wrap;html=1;boundedLbl=1;backgroundOutline=1;size=15;align=center;" parent="v2S93DWMGzN4kAM7KS5l-1" vertex="1">
                    <mxGeometry x="845" y="670" width="70" height="80" as="geometry"/>
                </mxCell>
                <mxCell id="v2S93DWMGzN4kAM7KS5l-84" value="plans &amp;amp; subscriptions" style="shape=cylinder3;whiteSpace=wrap;html=1;boundedLbl=1;backgroundOutline=1;size=15;align=center;" parent="v2S93DWMGzN4kAM7KS5l-1" vertex="1">
                    <mxGeometry x="1800" y="140" width="80" height="80" as="geometry"/>
                </mxCell>
                <mxCell id="v2S93DWMGzN4kAM7KS5l-85" value="customer payment info" style="shape=cylinder3;whiteSpace=wrap;html=1;boundedLbl=1;backgroundOutline=1;size=15;align=center;" parent="v2S93DWMGzN4kAM7KS5l-1" vertex="1">
                    <mxGeometry x="2370" y="122.5" width="80" height="80" as="geometry"/>
                </mxCell>
                <mxCell id="v2S93DWMGzN4kAM7KS5l-87" style="orthogonalLoop=1;jettySize=auto;html=1;entryX=0;entryY=0.5;entryDx=0;entryDy=0;exitX=1;exitY=0.5;exitDx=0;exitDy=0;" parent="v2S93DWMGzN4kAM7KS5l-1" source="v2S93DWMGzN4kAM7KS5l-88" target="v2S93DWMGzN4kAM7KS5l-92" edge="1">
                    <mxGeometry relative="1" as="geometry">
                        <mxPoint x="2320" y="360" as="targetPoint"/>
                    </mxGeometry>
                </mxCell>
                <mxCell id="v2S93DWMGzN4kAM7KS5l-88" value="BI dashboard" style="whiteSpace=wrap;html=1;align=center;" parent="v2S93DWMGzN4kAM7KS5l-1" vertex="1">
                    <mxGeometry x="2150" y="330" width="120" height="60" as="geometry"/>
                </mxCell>
                <mxCell id="v2S93DWMGzN4kAM7KS5l-89" style="edgeStyle=orthogonalEdgeStyle;orthogonalLoop=1;jettySize=auto;html=1;" parent="v2S93DWMGzN4kAM7KS5l-1" source="v2S93DWMGzN4kAM7KS5l-90" target="v2S93DWMGzN4kAM7KS5l-88" edge="1">
                    <mxGeometry relative="1" as="geometry"/>
                </mxCell>
                <mxCell id="v2S93DWMGzN4kAM7KS5l-90" value="manager" style="shape=umlActor;verticalLabelPosition=bottom;verticalAlign=top;html=1;align=center;" parent="v2S93DWMGzN4kAM7KS5l-1" vertex="1">
                    <mxGeometry x="2070" y="330" width="30" height="60" as="geometry"/>
                </mxCell>
                <mxCell id="v2S93DWMGzN4kAM7KS5l-91" style="edgeStyle=orthogonalEdgeStyle;rounded=0;orthogonalLoop=1;jettySize=auto;html=1;entryX=0.5;entryY=0;entryDx=0;entryDy=0;entryPerimeter=0;" parent="v2S93DWMGzN4kAM7KS5l-1" source="v2S93DWMGzN4kAM7KS5l-92" target="v2S93DWMGzN4kAM7KS5l-93" edge="1">
                    <mxGeometry relative="1" as="geometry">
                        <Array as="points"/>
                    </mxGeometry>
                </mxCell>
                <mxCell id="v2S93DWMGzN4kAM7KS5l-92" value="Reporting system" style="whiteSpace=wrap;html=1;align=center;" parent="v2S93DWMGzN4kAM7KS5l-1" vertex="1">
                    <mxGeometry x="2370" y="330.25" width="120" height="60" as="geometry"/>
                </mxCell>
                <mxCell id="v2S93DWMGzN4kAM7KS5l-93" value="reports" style="shape=cylinder3;whiteSpace=wrap;html=1;boundedLbl=1;backgroundOutline=1;size=15;shadow=0;glass=0;sketch=0;" parent="v2S93DWMGzN4kAM7KS5l-1" vertex="1">
                    <mxGeometry x="2400" y="435" width="60" height="80" as="geometry"/>
                </mxCell>
                <mxCell id="v2S93DWMGzN4kAM7KS5l-94" style="edgeStyle=orthogonalEdgeStyle;rounded=0;orthogonalLoop=1;jettySize=auto;html=1;entryX=1;entryY=0.5;entryDx=0;entryDy=0;entryPerimeter=0;" parent="v2S93DWMGzN4kAM7KS5l-1" source="v2S93DWMGzN4kAM7KS5l-95" target="v2S93DWMGzN4kAM7KS5l-93" edge="1">
                    <mxGeometry relative="1" as="geometry"/>
                </mxCell>
                <mxCell id="v2S93DWMGzN4kAM7KS5l-95" value="report builder" style="whiteSpace=wrap;html=1;align=center;" parent="v2S93DWMGzN4kAM7KS5l-1" vertex="1">
                    <mxGeometry x="2520" y="445" width="120" height="60" as="geometry"/>
                </mxCell>
                <mxCell id="v2S93DWMGzN4kAM7KS5l-96" value="" style="group" parent="v2S93DWMGzN4kAM7KS5l-1" vertex="1" connectable="0">
                    <mxGeometry x="606.25" y="233.75" width="135" height="45" as="geometry"/>
                </mxCell>
                <mxCell id="v2S93DWMGzN4kAM7KS5l-97" value="" style="shape=cylinder3;whiteSpace=wrap;html=1;boundedLbl=1;backgroundOutline=1;size=15;align=left;rotation=90;horizontal=0;" parent="v2S93DWMGzN4kAM7KS5l-96" vertex="1">
                    <mxGeometry x="51.25" y="-38.75" width="40" height="127.5" as="geometry"/>
                </mxCell>
                <mxCell id="v2S93DWMGzN4kAM7KS5l-98" value="request&amp;nbsp; queues" style="shape=cylinder3;whiteSpace=wrap;html=1;boundedLbl=1;backgroundOutline=1;size=15;align=left;rotation=90;horizontal=0;" parent="v2S93DWMGzN4kAM7KS5l-96" vertex="1">
                    <mxGeometry x="43.75" y="-43.75" width="40" height="127.5" as="geometry"/>
                </mxCell>
                <mxCell id="v2S93DWMGzN4kAM7KS5l-99" value="" style="group" parent="v2S93DWMGzN4kAM7KS5l-1" vertex="1" connectable="0">
                    <mxGeometry x="621.25" y="750.25" width="120" height="46" as="geometry"/>
                </mxCell>
                <mxCell id="v2S93DWMGzN4kAM7KS5l-100" value="&lt;div&gt;&lt;span style=&quot;font-size: 11px&quot;&gt;results queues&lt;/span&gt;&lt;/div&gt;" style="shape=cylinder3;whiteSpace=wrap;html=1;boundedLbl=1;backgroundOutline=1;size=15;align=center;rotation=90;horizontal=0;" parent="v2S93DWMGzN4kAM7KS5l-99" vertex="1">
                    <mxGeometry x="43.75" y="-30.25" width="40" height="112.5" as="geometry"/>
                </mxCell>
                <mxCell id="v2S93DWMGzN4kAM7KS5l-101" value="&lt;div&gt;&lt;span style=&quot;font-size: 11px&quot;&gt;results queues&lt;/span&gt;&lt;/div&gt;" style="shape=cylinder3;whiteSpace=wrap;html=1;boundedLbl=1;backgroundOutline=1;size=15;align=center;rotation=90;horizontal=0;" parent="v2S93DWMGzN4kAM7KS5l-99" vertex="1">
                    <mxGeometry x="36.25" y="-36.25" width="40" height="112.5" as="geometry"/>
                </mxCell>
                <mxCell id="v2S93DWMGzN4kAM7KS5l-102" style="edgeStyle=orthogonalEdgeStyle;rounded=1;orthogonalLoop=1;jettySize=auto;html=1;entryX=0.5;entryY=1;entryDx=0;entryDy=0;" parent="v2S93DWMGzN4kAM7KS5l-1" source="v2S93DWMGzN4kAM7KS5l-103" target="v2S93DWMGzN4kAM7KS5l-95" edge="1">
                    <mxGeometry relative="1" as="geometry"/>
                </mxCell>
                <mxCell id="v2S93DWMGzN4kAM7KS5l-103" value="&lt;div&gt;&lt;span style=&quot;font-size: 11px&quot;&gt;ticket created&lt;/span&gt;&lt;/div&gt;" style="shape=cylinder3;whiteSpace=wrap;html=1;boundedLbl=1;backgroundOutline=1;size=15;align=center;rotation=90;horizontal=0;" parent="v2S93DWMGzN4kAM7KS5l-1" vertex="1">
                    <mxGeometry x="2791" y="669.25" width="40" height="112.5" as="geometry"/>
                </mxCell>
                <mxCell id="v2S93DWMGzN4kAM7KS5l-104" style="edgeStyle=orthogonalEdgeStyle;rounded=1;orthogonalLoop=1;jettySize=auto;html=1;entryX=0.5;entryY=1;entryDx=0;entryDy=0;" parent="v2S93DWMGzN4kAM7KS5l-1" source="v2S93DWMGzN4kAM7KS5l-105" target="v2S93DWMGzN4kAM7KS5l-95" edge="1">
                    <mxGeometry relative="1" as="geometry"/>
                </mxCell>
                <mxCell id="v2S93DWMGzN4kAM7KS5l-105" value="&lt;div&gt;&lt;span style=&quot;font-size: 11px&quot;&gt;ticket assigned&lt;/span&gt;&lt;/div&gt;" style="shape=cylinder3;whiteSpace=wrap;html=1;boundedLbl=1;backgroundOutline=1;size=15;align=center;rotation=90;horizontal=0;" parent="v2S93DWMGzN4kAM7KS5l-1" vertex="1">
                    <mxGeometry x="2790" y="713.25" width="40" height="112.5" as="geometry"/>
                </mxCell>
                <mxCell id="v2S93DWMGzN4kAM7KS5l-106" style="edgeStyle=orthogonalEdgeStyle;rounded=1;orthogonalLoop=1;jettySize=auto;html=1;entryX=0.5;entryY=1;entryDx=0;entryDy=0;" parent="v2S93DWMGzN4kAM7KS5l-1" source="v2S93DWMGzN4kAM7KS5l-107" target="v2S93DWMGzN4kAM7KS5l-95" edge="1">
                    <mxGeometry relative="1" as="geometry"/>
                </mxCell>
                <mxCell id="v2S93DWMGzN4kAM7KS5l-107" value="&lt;div&gt;&lt;span style=&quot;font-size: 11px&quot;&gt;date confirmed&lt;/span&gt;&lt;/div&gt;" style="shape=cylinder3;whiteSpace=wrap;html=1;boundedLbl=1;backgroundOutline=1;size=15;align=center;rotation=90;horizontal=0;" parent="v2S93DWMGzN4kAM7KS5l-1" vertex="1">
                    <mxGeometry x="2790" y="623.25" width="40" height="112.5" as="geometry"/>
                </mxCell>
                <mxCell id="v2S93DWMGzN4kAM7KS5l-108" style="edgeStyle=orthogonalEdgeStyle;orthogonalLoop=1;jettySize=auto;html=1;entryX=0.5;entryY=1;entryDx=0;entryDy=0;rounded=1;" parent="v2S93DWMGzN4kAM7KS5l-1" source="v2S93DWMGzN4kAM7KS5l-109" target="v2S93DWMGzN4kAM7KS5l-95" edge="1">
                    <mxGeometry relative="1" as="geometry"/>
                </mxCell>
                <mxCell id="v2S93DWMGzN4kAM7KS5l-109" value="&lt;div&gt;&lt;span style=&quot;font-size: 11px&quot;&gt;notify&lt;/span&gt;&lt;/div&gt;" style="shape=cylinder3;whiteSpace=wrap;html=1;boundedLbl=1;backgroundOutline=1;size=15;align=center;rotation=90;horizontal=0;" parent="v2S93DWMGzN4kAM7KS5l-1" vertex="1">
                    <mxGeometry x="2790" y="577" width="40" height="112.5" as="geometry"/>
                </mxCell>
                <mxCell id="v2S93DWMGzN4kAM7KS5l-110" style="edgeStyle=orthogonalEdgeStyle;rounded=1;orthogonalLoop=1;jettySize=auto;html=1;entryX=0.5;entryY=1;entryDx=0;entryDy=0;" parent="v2S93DWMGzN4kAM7KS5l-1" source="v2S93DWMGzN4kAM7KS5l-111" target="v2S93DWMGzN4kAM7KS5l-95" edge="1">
                    <mxGeometry relative="1" as="geometry"/>
                </mxCell>
                <mxCell id="v2S93DWMGzN4kAM7KS5l-111" value="&lt;div&gt;&lt;span style=&quot;font-size: 11px&quot;&gt;payment request&lt;/span&gt;&lt;/div&gt;" style="shape=cylinder3;whiteSpace=wrap;html=1;boundedLbl=1;backgroundOutline=1;size=15;align=center;rotation=90;horizontal=0;" parent="v2S93DWMGzN4kAM7KS5l-1" vertex="1">
                    <mxGeometry x="2790" y="533.25" width="40" height="112.5" as="geometry"/>
                </mxCell>
                <mxCell id="v2S93DWMGzN4kAM7KS5l-112" style="edgeStyle=orthogonalEdgeStyle;rounded=1;orthogonalLoop=1;jettySize=auto;html=1;entryX=0.5;entryY=1;entryDx=0;entryDy=0;" parent="v2S93DWMGzN4kAM7KS5l-1" source="v2S93DWMGzN4kAM7KS5l-113" target="v2S93DWMGzN4kAM7KS5l-95" edge="1">
                    <mxGeometry relative="1" as="geometry"/>
                </mxCell>
                <mxCell id="v2S93DWMGzN4kAM7KS5l-113" value="&lt;div&gt;&lt;span style=&quot;font-size: 11px&quot;&gt;payment results&lt;/span&gt;&lt;/div&gt;" style="shape=cylinder3;whiteSpace=wrap;html=1;boundedLbl=1;backgroundOutline=1;size=15;align=center;rotation=90;horizontal=0;" parent="v2S93DWMGzN4kAM7KS5l-1" vertex="1">
                    <mxGeometry x="2360" y="691.38" width="40" height="112.5" as="geometry"/>
                </mxCell>
                <mxCell id="v2S93DWMGzN4kAM7KS5l-114" style="edgeStyle=orthogonalEdgeStyle;rounded=1;orthogonalLoop=1;jettySize=auto;html=1;entryX=0.5;entryY=1;entryDx=0;entryDy=0;" parent="v2S93DWMGzN4kAM7KS5l-1" source="v2S93DWMGzN4kAM7KS5l-115" target="v2S93DWMGzN4kAM7KS5l-95" edge="1">
                    <mxGeometry relative="1" as="geometry"/>
                </mxCell>
                <mxCell id="v2S93DWMGzN4kAM7KS5l-115" value="&lt;div&gt;&lt;span style=&quot;font-size: 11px&quot;&gt;subscription created&lt;/span&gt;&lt;/div&gt;" style="shape=cylinder3;whiteSpace=wrap;html=1;boundedLbl=1;backgroundOutline=1;size=15;align=center;rotation=90;horizontal=0;" parent="v2S93DWMGzN4kAM7KS5l-1" vertex="1">
                    <mxGeometry x="2360" y="647.38" width="40" height="112.5" as="geometry"/>
                </mxCell>
                <mxCell id="v2S93DWMGzN4kAM7KS5l-116" style="edgeStyle=orthogonalEdgeStyle;rounded=1;orthogonalLoop=1;jettySize=auto;html=1;entryX=0.5;entryY=1;entryDx=0;entryDy=0;" parent="v2S93DWMGzN4kAM7KS5l-1" source="v2S93DWMGzN4kAM7KS5l-117" target="v2S93DWMGzN4kAM7KS5l-95" edge="1">
                    <mxGeometry relative="1" as="geometry"/>
                </mxCell>
                <mxCell id="v2S93DWMGzN4kAM7KS5l-117" value="&lt;div&gt;&lt;span style=&quot;font-size: 11px&quot;&gt;request queues&lt;/span&gt;&lt;/div&gt;" style="shape=cylinder3;whiteSpace=wrap;html=1;boundedLbl=1;backgroundOutline=1;size=15;align=center;rotation=90;horizontal=0;" parent="v2S93DWMGzN4kAM7KS5l-1" vertex="1">
                    <mxGeometry x="2360" y="601.38" width="40" height="112.5" as="geometry"/>
                </mxCell>
                <mxCell id="v2S93DWMGzN4kAM7KS5l-118" style="edgeStyle=orthogonalEdgeStyle;rounded=1;orthogonalLoop=1;jettySize=auto;html=1;entryX=0.5;entryY=1;entryDx=0;entryDy=0;" parent="v2S93DWMGzN4kAM7KS5l-1" source="v2S93DWMGzN4kAM7KS5l-119" target="v2S93DWMGzN4kAM7KS5l-95" edge="1">
                    <mxGeometry relative="1" as="geometry"/>
                </mxCell>
                <mxCell id="v2S93DWMGzN4kAM7KS5l-119" value="&lt;div&gt;&lt;span style=&quot;font-size: 11px&quot;&gt;response queues&lt;/span&gt;&lt;/div&gt;" style="shape=cylinder3;whiteSpace=wrap;html=1;boundedLbl=1;backgroundOutline=1;size=15;align=center;rotation=90;horizontal=0;" parent="v2S93DWMGzN4kAM7KS5l-1" vertex="1">
                    <mxGeometry x="2360" y="555.13" width="40" height="112.5" as="geometry"/>
                </mxCell>
                <mxCell id="v2S93DWMGzN4kAM7KS5l-120" style="rounded=0;orthogonalLoop=1;jettySize=auto;html=1;exitX=0.5;exitY=1;exitDx=0;exitDy=0;exitPerimeter=0;entryX=0;entryY=0;entryDx=0;entryDy=88.125;entryPerimeter=0;strokeColor=none;" parent="v2S93DWMGzN4kAM7KS5l-1" source="v2S93DWMGzN4kAM7KS5l-122" target="v2S93DWMGzN4kAM7KS5l-98" edge="1">
                    <mxGeometry relative="1" as="geometry"/>
                </mxCell>
                <mxCell id="v2S93DWMGzN4kAM7KS5l-121" style="edgeStyle=none;rounded=0;orthogonalLoop=1;jettySize=auto;html=1;entryX=0;entryY=0;entryDx=0;entryDy=88.125;entryPerimeter=0;dashed=1;endArrow=none;endFill=0;" parent="v2S93DWMGzN4kAM7KS5l-1" source="v2S93DWMGzN4kAM7KS5l-122" target="v2S93DWMGzN4kAM7KS5l-98" edge="1">
                    <mxGeometry relative="1" as="geometry"/>
                </mxCell>
                <mxCell id="v2S93DWMGzN4kAM7KS5l-122" value="different queue per request type" style="shape=note;strokeWidth=2;fontSize=14;size=20;whiteSpace=wrap;html=1;fillColor=#fff2cc;strokeColor=#d6b656;fontColor=#666600;shadow=0;glass=0;sketch=0;" parent="v2S93DWMGzN4kAM7KS5l-1" vertex="1">
                    <mxGeometry x="555" y="153.5" width="130" height="49" as="geometry"/>
                </mxCell>
                <mxCell id="v2S93DWMGzN4kAM7KS5l-123" style="edgeStyle=none;rounded=0;orthogonalLoop=1;jettySize=auto;html=1;entryX=1;entryY=0.5;entryDx=0;entryDy=0;dashed=1;endArrow=none;endFill=0;" parent="v2S93DWMGzN4kAM7KS5l-1" source="v2S93DWMGzN4kAM7KS5l-124" target="v2S93DWMGzN4kAM7KS5l-92" edge="1">
                    <mxGeometry relative="1" as="geometry"/>
                </mxCell>
                <mxCell id="v2S93DWMGzN4kAM7KS5l-124" value="open source BI system deployed on premise (eg. tableau)" style="shape=note;strokeWidth=2;fontSize=14;size=20;whiteSpace=wrap;html=1;fillColor=#fff2cc;strokeColor=#d6b656;fontColor=#666600;shadow=0;glass=0;sketch=0;" parent="v2S93DWMGzN4kAM7KS5l-1" vertex="1">
                    <mxGeometry x="2580" y="320" width="135" height="80" as="geometry"/>
                </mxCell>
            </root>
        </mxGraphModel>
    </diagram>
</mxfile>